<?xml version="1.0" encoding="UTF-8"?><svg id="Calque_2" xmlns="http://www.w3.org/2000/svg" viewBox="0 0 260.55 159.81"><g id="Calque_1-2"><path d="m65.52,67.3c0,.91-.42,1.36-1.27,1.36h-15.56c-.85,0-1.27-.51-1.27-1.54,0-2.96.11-7.4.33-13.32.22-5.92.33-10.36.33-13.32,0-.85-.13-1.3-.4-1.36-.32.18-2.29,4.7-5.89,13.58-2.11,5.21-4.22,10.42-6.33,15.6-.29.67-.66,1.07-1.1,1.19-.15.03-.73.04-1.76.04-1.52,0-2.43-.29-2.72-.88-1.58-3.22-3.66-7.91-6.24-14.06-2.75-6.5-4.82-11.21-6.2-14.11-.06-.15-.19-.31-.4-.48-.21.26-.31.69-.31,1.27,0,2.87.07,7.18.22,12.92.15,5.74.22,10.05.22,12.92,0,1.03-.41,1.54-1.23,1.54H1.27c-.59,0-.94-.09-1.08-.29-.13-.19-.2-.52-.2-.99,0-3.19.15-7.99.46-14.39.31-6.4.46-11.2.46-14.39,0-3.4-.15-9.77-.44-19.12-.03-2.43-.16-6.05-.4-10.85l-.04-.75c-.03-.59.59-.88,1.85-.88,1.61,0,4.03-.05,7.25-.15,3.22-.1,5.64-.15,7.25-.15.32,0,.78.62,1.36,1.85l12.83,28.17c.91,1.9,1.67,2.86,2.29,2.86.32,0,1.01-1.1,2.07-3.3,2.96-6.15,7.34-15.42,13.14-27.82.5-1.14,1.04-1.71,1.63-1.71.85,0,2.13.04,3.85.13s3.01.13,3.89.13c.73,0,1.85-.07,3.36-.22,1.51-.15,2.63-.22,3.36-.22.88,0,1.32.35,1.32,1.05,0,3.46-.12,8.62-.37,15.49-.25,6.87-.37,12.03-.37,15.49,0,3.19.13,7.98.4,14.37.26,6.39.4,11.16.4,14.33Z"/><path d="m133.68,44.98c0,9.14-2.92,16.8-8.75,22.98-5.95,6.27-13.48,9.4-22.59,9.4s-16.57-3.16-22.54-9.49c-5.86-6.18-8.79-13.81-8.79-22.9s2.93-16.77,8.79-22.98c5.98-6.36,13.49-9.54,22.54-9.54s16.49,3.18,22.5,9.54c5.89,6.27,8.83,13.93,8.83,22.98Zm-16.66-.09c0-4.39-1.33-8.13-4-11.21-2.78-3.22-6.34-4.83-10.68-4.83s-7.63,1.67-10.5,5.01c-2.78,3.22-4.17,6.93-4.17,11.12,0,4.48,1.3,8.22,3.91,11.21,2.75,3.14,6.34,4.7,10.77,4.7,4.13,0,7.65-1.65,10.55-4.97,2.75-3.16,4.13-6.84,4.13-11.03Z"/><path d="m159.87,61.83c-3.96,0-6.21-.06-6.77-.18-.56-.12-1.03-.54-1.41-1.27-3.34-6.59-6.69-13.2-10.06-19.82-5.3-10.63-7.95-16.66-7.95-18.06,0-2.31.08-5.79.24-10.44.16-4.64.24-8.12.24-10.44,0-1.08.29-1.63.88-1.63,1.76,0,4.42.07,8,.22,3.57.15,6.25.22,8.04.22.73,0,1.1.31,1.1.92,0,2.37-.17,5.94-.51,10.7-.34,4.76-.51,8.33-.51,10.7,0,1.82,2.97,8.31,8.92,19.47,1.61-2.9,3.44-6.46,5.49-10.68,2.75-5.68,4.13-9.17,4.13-10.46,0-2.14-.03-5.35-.09-9.65-.06-4.29-.09-7.51-.09-9.65,0-.79.13-1.23.4-1.32h1.41c1.61,0,4.05-.08,7.32-.24,3.27-.16,5.71-.24,7.32-.24.88,0,1.32.35,1.32,1.05,0,2.26-.04,5.66-.11,10.22-.07,4.56-.11,7.98-.11,10.26,0,1.82-2.89,8.5-8.66,20.04-2.29,4.16-5.58,10.43-9.89,18.81-.29.64-.49,1-.59,1.08-.1.07-.48.14-1.12.2-1.49.12-3.81.18-6.94.18Z"/><path d="m209.88,44.54c0,3.46.09,8.66.26,15.6s.26,12.14.26,15.6c0,.59-.13.95-.4,1.1-.06.03-.44.09-1.14.18-1.91.23-4.45.35-7.65.35-4.28,0-7-.12-8.17-.35-.85-.18-1.27-.63-1.27-1.36,0,.47.13-2.11.4-7.73.53-11.87.79-19.66.79-23.38,0-3.13-.1-7.84-.31-14.11-.21-6.27-.31-10.97-.31-14.11,0-.64.34-.97,1.01-.97.91,0,2.28.04,4.11.13s3.2.13,4.11.13,2.25-.04,4.02-.13,3.11-.13,4.02-.13c.85,0,1.27.32,1.27.97,0,3.14-.17,7.84-.51,14.11-.34,6.27-.5,10.97-.5,14.11Z"/><path d="m260.55,55c0,1.26-.25,3.57-.75,6.94-.53,3.66-1,5.84-1.41,6.55-.35.56-.83.83-1.45.83-.26,0-.7-.04-1.32-.13-2.14-.29-8.38-.44-18.72-.44-2.26,0-5.61-.02-10.06-.04-4.45-.03-7.79-.04-10.02-.04-.97,0-1.45-.42-1.45-1.27,0-3.28.18-8.21.55-14.79.37-6.58.55-11.51.55-14.79s-.18-9.56-.53-18.68c-.09-2.34-.25-5.84-.48-10.5l-.04-.62c-.06-.67.31-1.01,1.1-1.01,2.17,0,5.43.06,9.78.18,4.35.12,7.61.18,9.78.18s5.36-.06,9.67-.18c4.31-.12,7.53-.18,9.67-.18,1.52,0,2.4.57,2.64,1.71.15.67.37,2.72.68,6.13.31,3.41.46,5.49.46,6.22,0,.62-.29.92-.88.92-.18,0-.48-.01-.92-.04-7.79-.64-14.79-.97-21.01-.97-1.55,0-2.5.37-2.86,1.1-.15.35-.22,1.48-.22,3.38s.29,3.31.88,3.96c.5.56,1.45.83,2.86.83.29,0,.86-.02,1.71-.07.85-.04,1.55-.07,2.11-.07,3.69,0,7.43-.1,11.21-.31.32-.03,1.13-.1,2.42-.22,1-.12,1.79-.18,2.37-.18.7,0,1.05.34,1.05,1.01,0-.62-.26,1.63-.79,6.72-.24,2.34-.35,4.69-.35,7.03,0,.59-.42.88-1.27.88l-3.96-.44c-1.67-.18-5.48-.26-11.43-.26h-4.66c-1.2,0-1.91.29-2.11.88-.03.15-.04,1.05-.04,2.72,0,2.23.15,3.66.44,4.31.5,1.11,2.37,1.77,5.62,1.98-.06,0,2.08,0,6.42,0,1.55,0,3.86-.14,6.92-.42,3.06-.28,5.35-.42,6.88-.42.64,0,.97.53.97,1.58Z"/><path d="m64.84,118.1c0,5.95-2.5,11.05-7.51,15.29-4.39,3.75-9.74,6.14-16.04,7.16-.24.03-.42.04-.57.04-.67,0-2.17-2.06-4.48-6.17-2.31-4.12-3.47-6.63-3.47-7.54,0-.32.22-.53.66-.62,4.25-.97,7.06-1.79,8.44-2.46,3.05-1.52,4.57-3.78,4.57-6.77,0-1.9-1-4.03-2.99-6.37-3.46-3.98-5.33-6.2-5.62-6.64-2.02-3.05-3.03-6.42-3.03-10.11,0-5.36,2.48-9.81,7.43-13.36,4.04-2.93,9.01-4.83,14.9-5.71.32-.03.57-.04.75-.04.44,0,.79.35,1.05,1.05.76,2.14,2.53,6.01,5.32,11.6.09.18.13.32.13.44,0,.5-.26.75-.79.75-.23,0-.63-.04-1.19-.13s-.98-.13-1.27-.13c-2.11,0-3.96.48-5.54,1.45-1.91,1.11-2.86,2.67-2.86,4.66,0,1.79,1.05,3.98,3.16,6.59,3.72,4.69,5.67,7.15,5.84,7.38,2.08,3.22,3.12,6.43,3.12,9.62Z"/><path d="m123.97,117.25c0,7.09-1.86,12.83-5.58,17.23-3.98,4.66-9.48,6.99-16.48,6.99-1.17,0-2.94-.07-5.29-.2-2.36-.13-4.12-.2-5.3-.2-1.26,0-1.89.54-1.89,1.63,0,1.35.13,3.35.4,6.02.26,2.67.4,4.66.4,5.98,0,.67-.31,1.01-.92,1.01-1.79,0-4.47-.05-8.04-.15-3.57-.1-6.25-.15-8.04-.15-.85,0-1.27-.42-1.27-1.27,0-3.25.05-8.14.15-14.66.1-6.52.15-11.4.15-14.66,0-9.2-.4-18.87-1.19-29l-.04-.62c-.06-.56.38-.89,1.32-1.01,2.29-.29,7.32-.44,15.12-.44,4.6,0,9.01.06,13.23.18,6.94.21,12.54,2.39,16.79,6.55,4.34,4.28,6.5,9.87,6.5,16.79Zm-17.53.7c0-6.83-3.33-10.24-9.98-10.24-4.69,0-7.15.26-7.38.79-.21.38-.31,3.76-.31,10.15,0,.91.04,2.25.11,4.02.07,1.77.11,3.11.11,4.02,0,.59,2.64.88,7.91.88,6.36,0,9.54-3.21,9.54-9.62Z"/><path d="m189.21,107.78c0,9.14-2.92,16.8-8.75,22.98-5.95,6.27-13.48,9.4-22.59,9.4s-16.57-3.16-22.54-9.49c-5.86-6.18-8.79-13.81-8.79-22.9s2.93-16.77,8.79-22.98c5.98-6.36,13.49-9.54,22.54-9.54s16.49,3.18,22.5,9.54c5.89,6.27,8.83,13.93,8.83,22.98Zm-16.66-.09c0-4.39-1.33-8.13-4-11.21-2.78-3.22-6.34-4.83-10.68-4.83s-7.63,1.67-10.5,5.01c-2.78,3.22-4.17,6.93-4.17,11.12,0,4.48,1.3,8.22,3.91,11.21,2.75,3.14,6.34,4.7,10.77,4.7,4.13,0,7.65-1.65,10.55-4.97,2.75-3.16,4.13-6.84,4.13-11.03Z"/><path d="m238.55,100.35c0,.59-.32.88-.97.88-1.11,0-5.52-.22-13.23-.66-.18,7.41-.26,12.58-.26,15.51,0,3.46.14,8.66.42,15.6s.42,12.14.42,15.6c0,.56-.13.91-.4,1.05-.09.06-.5.13-1.23.22-1.76.23-4.34.35-7.73.35-3.78,0-6.43-.12-7.95-.35-.82-.15-1.23-.6-1.23-1.36,0-3.46.15-8.64.44-15.56.29-6.91.44-12.1.44-15.56,0-2.29-.12-7.38-.35-15.29-5.86.59-10.53.88-14.02.88-.47,0-.7-.15-.7-.44,0-.38.21-1.51.62-3.38.47-2.05.73-3.3.79-3.74.09-1.38.19-2.75.31-4.13.21-2.2.56-3.3,1.05-3.3.06,0,.26.02.62.04,4.75.62,11.76.92,21.05.92,2.64,0,7.5-.28,14.59-.83,3.81-.29,5.73-.44,5.76-.44.59,0,.92.04,1.01.11.09.07.15.36.18.86,0,.79-.03,1.89-.09,3.3-.06,1.55-.09,2.65-.09,3.3,0,.73.09,1.81.29,3.23.19,1.42.29,2.48.29,3.19Z"/><path d="m200.02,152.94l-3.42,1.48c-1.94.84-3.67,2.11-5.05,3.7l-1,1.15c-.68.78-1.91.7-2.47-.17l-22.13-33.63,10.17-7.51,5.88,11.04,18.47,22.08c.51.61.29,1.54-.44,1.86Z"/></g></svg>